# Blender v2.90.1 OBJ File: 'TargetModel.blend'
# www.blender.org
mtllib TargetModel.mtl
o PartTargetBase3D_Cylinder
v -0.864950 -0.000000 -3.678747
v 0.864950 0.000000 -3.678747
v -0.864950 -0.717688 -3.608061
v 0.864950 -0.717688 -3.608061
v -0.864950 -1.407796 -3.398719
v 0.864950 -1.407796 -3.398719
v -0.864950 -2.043803 -3.058767
v 0.864950 -2.043803 -3.058767
v -0.864950 -2.601267 -2.601267
v 0.864950 -2.601267 -2.601267
v -0.864950 -3.058767 -2.043802
v 0.864950 -3.058767 -2.043802
v -0.864950 -3.398720 -1.407796
v 0.864950 -3.398720 -1.407796
v -0.864950 -3.608062 -0.717688
v 0.864950 -3.608062 -0.717688
v -0.864950 -3.678748 -0.000000
v 0.864950 -3.678748 -0.000000
v -0.864950 -3.608062 0.717688
v 0.864950 -3.608062 0.717688
v -0.864950 -3.398720 1.407795
v 0.864950 -3.398720 1.407795
v -0.864950 -3.058767 2.043803
v 0.864950 -3.058767 2.043803
v -0.864950 -2.601267 2.601268
v 0.864950 -2.601267 2.601268
v -0.864950 -2.043802 3.058767
v 0.864950 -2.043802 3.058767
v -0.864950 -1.407795 3.398720
v 0.864950 -1.407795 3.398720
v -0.864950 -0.717687 3.608062
v 0.864950 -0.717687 3.608062
v -0.864950 0.000001 3.678748
v 0.864950 0.000001 3.678748
v -0.864950 0.717690 3.608062
v 0.864950 0.717690 3.608062
v -0.864950 1.407797 3.398719
v 0.864950 1.407798 3.398719
v -0.864950 2.043804 3.058766
v 0.864950 2.043804 3.058766
v -0.864950 2.601269 2.601266
v 0.864950 2.601269 2.601266
v -0.864950 3.058768 2.043801
v 0.864950 3.058768 2.043801
v -0.864950 3.398721 1.407793
v 0.864950 3.398721 1.407793
v -0.864950 3.608062 0.717685
v 0.864950 3.608062 0.717685
v -0.864950 3.678748 -0.000004
v 0.864950 3.678748 -0.000004
v -0.864950 3.608061 -0.717692
v 0.864950 3.608061 -0.717692
v -0.864950 3.398718 -1.407800
v 0.864950 3.398718 -1.407800
v -0.864950 3.058764 -2.043806
v 0.864950 3.058764 -2.043806
v -0.864950 2.601264 -2.601270
v 0.864950 2.601264 -2.601270
v -0.864950 2.043799 -3.058769
v 0.864950 2.043799 -3.058769
v -0.864950 1.407791 -3.398721
v 0.864950 1.407791 -3.398721
v -0.864950 0.717682 -3.608062
v 0.864950 0.717683 -3.608062
vt 0.913188 0.935243
vt 0.919091 0.935243
vt 0.919091 0.937704
vt 0.913188 0.937704
vt 0.925010 0.927861
vt 0.919107 0.927861
vt 0.919107 0.925400
vt 0.925010 0.925400
vt 0.919107 0.922939
vt 0.925010 0.922939
vt 0.919107 0.920479
vt 0.925010 0.920479
vt 0.919107 0.918018
vt 0.925010 0.918018
vt 0.919107 0.915557
vt 0.925010 0.915557
vt 0.919107 0.913097
vt 0.925010 0.913097
vt 0.919107 0.910636
vt 0.925010 0.910636
vt 0.919107 0.908175
vt 0.925010 0.908175
vt 0.919107 0.905715
vt 0.925010 0.905715
vt 0.919107 0.903254
vt 0.925010 0.903254
vt 0.919107 0.900793
vt 0.925010 0.900793
vt 0.919107 0.898332
vt 0.925010 0.898332
vt 0.919107 0.895872
vt 0.925010 0.895872
vt 0.919107 0.893411
vt 0.925010 0.893411
vt 0.913188 0.893411
vt 0.919091 0.895872
vt 0.913188 0.895872
vt 0.919091 0.898332
vt 0.913188 0.898332
vt 0.919091 0.900793
vt 0.913188 0.900793
vt 0.919091 0.903254
vt 0.913188 0.903254
vt 0.919091 0.905715
vt 0.913188 0.905715
vt 0.919091 0.908175
vt 0.913188 0.908175
vt 0.919091 0.910636
vt 0.913188 0.910636
vt 0.919091 0.913097
vt 0.913188 0.913097
vt 0.919091 0.915557
vt 0.913188 0.915557
vt 0.919091 0.918018
vt 0.913188 0.918018
vt 0.919091 0.920479
vt 0.913188 0.920479
vt 0.919091 0.922939
vt 0.913188 0.922939
vt 0.919091 0.925400
vt 0.913188 0.925400
vt 0.919091 0.927861
vt 0.913188 0.927861
vt 0.919091 0.930322
vt 0.913188 0.930322
vt 0.967361 0.541221
vt 0.949263 0.632206
vt 0.913763 0.717910
vt 0.862225 0.795042
vt 0.796629 0.860639
vt 0.719497 0.912177
vt 0.633793 0.947677
vt 0.542809 0.965775
vt 0.450042 0.965775
vt 0.359059 0.947677
vt 0.273353 0.912177
vt 0.196221 0.860639
vt 0.130625 0.795042
vt 0.079087 0.717910
vt 0.043587 0.632206
vt 0.025489 0.541222
vt 0.025489 0.448456
vt 0.043586 0.357472
vt 0.079087 0.271767
vt 0.130625 0.194634
vt 0.196221 0.129038
vt 0.273353 0.077500
vt 0.359057 0.042000
vt 0.450042 0.023902
vt 0.542809 0.023902
vt 0.633792 0.042000
vt 0.719497 0.077500
vt 0.796629 0.129038
vt 0.862225 0.194634
vt 0.913763 0.271766
vt 0.949263 0.357471
vt 0.967361 0.448455
vt 0.919091 0.932782
vt 0.913188 0.932782
vt 0.920051 0.928609
vt 0.918005 0.929976
vt 0.915732 0.930918
vt 0.913318 0.931398
vt 0.910858 0.931398
vt 0.908444 0.930918
vt 0.906171 0.929976
vt 0.904125 0.928609
vt 0.902385 0.926869
vt 0.901018 0.924823
vt 0.900076 0.922550
vt 0.899596 0.920136
vt 0.899596 0.917676
vt 0.900076 0.915262
vt 0.901018 0.912989
vt 0.902385 0.910943
vt 0.904125 0.909203
vt 0.906171 0.907836
vt 0.908444 0.906894
vt 0.910858 0.906414
vt 0.913318 0.906414
vt 0.915732 0.906894
vt 0.918005 0.907836
vt 0.920051 0.909203
vt 0.921791 0.910943
vt 0.923158 0.912989
vt 0.924100 0.915262
vt 0.924580 0.917676
vt 0.924580 0.920136
vt 0.924100 0.922550
vt 0.923158 0.924823
vt 0.921791 0.926869
vn 0.0000 -0.0980 -0.9952
vn 0.0000 -0.2903 -0.9569
vn 0.0000 -0.4714 -0.8819
vn 0.0000 -0.6344 -0.7730
vn 0.0000 -0.7730 -0.6344
vn 0.0000 -0.8819 -0.4714
vn 0.0000 -0.9569 -0.2903
vn 0.0000 -0.9952 -0.0980
vn 0.0000 -0.9952 0.0980
vn 0.0000 -0.9569 0.2903
vn 0.0000 -0.8819 0.4714
vn 0.0000 -0.7730 0.6344
vn 0.0000 -0.6344 0.7730
vn 0.0000 -0.4714 0.8819
vn 0.0000 -0.2903 0.9569
vn 0.0000 -0.0980 0.9952
vn -0.0000 0.0980 0.9952
vn -0.0000 0.2903 0.9569
vn 0.0000 0.4714 0.8819
vn 0.0000 0.6344 0.7730
vn 0.0000 0.7730 0.6344
vn 0.0000 0.8819 0.4714
vn 0.0000 0.9569 0.2903
vn 0.0000 0.9952 0.0980
vn 0.0000 0.9952 -0.0980
vn 0.0000 0.9569 -0.2903
vn 0.0000 0.8819 -0.4714
vn 0.0000 0.7730 -0.6344
vn 0.0000 0.6344 -0.7730
vn -0.0000 0.4714 -0.8819
vn 1.0000 0.0000 -0.0000
vn 0.0000 0.2903 -0.9569
vn -0.0000 0.0980 -0.9952
vn -1.0000 -0.0000 0.0000
usemtl TargetMaterial
s off
f 1/1/1 2/2/1 4/3/1 3/4/1
f 3/5/2 4/6/2 6/7/2 5/8/2
f 5/8/3 6/7/3 8/9/3 7/10/3
f 7/10/4 8/9/4 10/11/4 9/12/4
f 9/12/5 10/11/5 12/13/5 11/14/5
f 11/14/6 12/13/6 14/15/6 13/16/6
f 13/16/7 14/15/7 16/17/7 15/18/7
f 15/18/8 16/17/8 18/19/8 17/20/8
f 17/20/9 18/19/9 20/21/9 19/22/9
f 19/22/10 20/21/10 22/23/10 21/24/10
f 21/24/11 22/23/11 24/25/11 23/26/11
f 23/26/12 24/25/12 26/27/12 25/28/12
f 25/28/13 26/27/13 28/29/13 27/30/13
f 27/30/14 28/29/14 30/31/14 29/32/14
f 29/32/15 30/31/15 32/33/15 31/34/15
f 31/35/16 32/33/16 34/36/16 33/37/16
f 33/37/17 34/36/17 36/38/17 35/39/17
f 35/39/18 36/38/18 38/40/18 37/41/18
f 37/41/19 38/40/19 40/42/19 39/43/19
f 39/43/20 40/42/20 42/44/20 41/45/20
f 41/45/21 42/44/21 44/46/21 43/47/21
f 43/47/22 44/46/22 46/48/22 45/49/22
f 45/49/23 46/48/23 48/50/23 47/51/23
f 47/51/24 48/50/24 50/52/24 49/53/24
f 49/53/25 50/52/25 52/54/25 51/55/25
f 51/55/26 52/54/26 54/56/26 53/57/26
f 53/57/27 54/56/27 56/58/27 55/59/27
f 55/59/28 56/58/28 58/60/28 57/61/28
f 57/61/29 58/60/29 60/62/29 59/63/29
f 59/63/30 60/62/30 62/64/30 61/65/30
f 4/66/31 2/67/31 64/68/31 62/69/31 60/70/31 58/71/31 56/72/31 54/73/31 52/74/31 50/75/31 48/76/31 46/77/31 44/78/31 42/79/31 40/80/31 38/81/31 36/82/31 34/83/31 32/84/31 30/85/31 28/86/31 26/87/31 24/88/31 22/89/31 20/90/31 18/91/31 16/92/31 14/93/31 12/94/31 10/95/31 8/96/31 6/97/31
f 61/65/32 62/64/32 64/98/32 63/99/32
f 63/99/33 64/98/33 2/2/33 1/1/33
f 1/100/34 3/101/34 5/102/34 7/103/34 9/104/34 11/105/34 13/106/34 15/107/34 17/108/34 19/109/34 21/110/34 23/111/34 25/112/34 27/113/34 29/114/34 31/115/34 33/116/34 35/117/34 37/118/34 39/119/34 41/120/34 43/121/34 45/122/34 47/123/34 49/124/34 51/125/34 53/126/34 55/127/34 57/128/34 59/129/34 61/130/34 63/131/34
o PartLegsOfTarget3D_Cube.003
v -0.503886 -6.654792 6.043365
v -0.503886 -5.432631 6.043365
v -0.503886 -6.654792 4.821204
v -0.503886 -5.432631 4.821204
v 0.351627 -6.654792 6.043365
v 0.351627 -5.432631 6.043365
v 0.351627 -6.654792 4.821204
v 0.351627 -5.432631 4.821204
v -0.503886 -4.088665 6.043365
v -0.503886 -4.088665 4.821204
v 0.351627 -4.088665 4.821204
v 0.351627 -4.088665 6.043365
v -0.503886 -3.292864 5.873659
v -0.503886 -3.838677 4.780148
v 0.351627 -3.838677 4.780148
v 0.351627 -3.292864 5.873659
v -0.503886 -1.744412 5.100769
v -0.503886 -2.290225 4.007257
v 0.351627 -2.290225 4.007257
v 0.351627 -1.744412 5.100769
v -0.503886 -1.024944 4.510978
v -0.503886 -1.990487 3.761708
v 0.351627 -1.990487 3.761708
v 0.351627 -1.024944 4.510978
v -0.503886 -0.113236 3.336110
v -0.503886 -1.078779 2.586840
v 0.351627 -1.078779 2.586840
v 0.351627 -0.113236 3.336110
v -0.503886 -6.654792 -6.043366
v -0.503886 -5.432631 -6.043366
v -0.503886 -6.654792 -4.821204
v -0.503886 -5.432631 -4.821204
v 0.351627 -6.654792 -6.043366
v 0.351627 -5.432631 -6.043366
v 0.351627 -6.654792 -4.821204
v 0.351627 -5.432631 -4.821204
v -0.503886 -4.088665 -6.043366
v -0.503886 -4.088665 -4.821204
v 0.351627 -4.088665 -4.821204
v 0.351627 -4.088665 -6.043366
v -0.503886 -3.292864 -5.873660
v -0.503886 -3.838677 -4.780148
v 0.351627 -3.838677 -4.780148
v 0.351627 -3.292864 -5.873660
v -0.503886 -1.744412 -5.100769
v -0.503886 -2.290225 -4.007257
v 0.351627 -2.290225 -4.007257
v 0.351627 -1.744412 -5.100769
v -0.503886 -1.024944 -4.510978
v -0.503886 -1.990487 -3.761708
v 0.351627 -1.990487 -3.761708
v 0.351627 -1.024944 -4.510978
v -0.503886 -0.113236 -3.336110
v -0.503886 -1.078779 -2.586840
v 0.351627 -1.078779 -2.586840
v 0.351627 -0.113236 -3.336110
vt 0.932331 0.870643
vt 0.932569 0.877681
vt 0.925684 0.878276
vt 0.925160 0.871090
vt 0.949745 0.870859
vt 0.949504 0.878096
vt 0.944488 0.877882
vt 0.944679 0.870690
vt 0.937373 0.877580
vt 0.937385 0.870541
vt 0.911444 0.914740
vt 0.911444 0.909944
vt 0.918295 0.909944
vt 0.918295 0.914740
vt 0.949101 0.886098
vt 0.943984 0.885971
vt 0.937235 0.884710
vt 0.943955 0.887496
vt 0.937167 0.888667
vt 0.933015 0.884665
vt 0.926588 0.885973
vt 0.926660 0.887418
vt 0.933059 0.888580
vt 0.933028 0.896895
vt 0.926278 0.897607
vt 0.949067 0.887552
vt 0.937267 0.897043
vt 0.937227 0.901685
vt 0.932848 0.901546
vt 0.949061 0.897853
vt 0.943894 0.898059
vt 0.944027 0.900394
vt 0.944661 0.909281
vt 0.937581 0.909877
vt 0.949163 0.900109
vt 0.926058 0.899918
vt 0.911427 0.916795
vt 0.906631 0.916795
vt 0.906631 0.909944
vt 0.911427 0.909944
vt 0.932409 0.909927
vt 0.924762 0.909128
vt 0.949745 0.908946
vt 0.907331 0.909825
vt 0.900160 0.909378
vt 0.900684 0.902192
vt 0.907569 0.902787
vt 0.924745 0.909609
vt 0.919679 0.909778
vt 0.919488 0.902586
vt 0.924504 0.902373
vt 0.912385 0.909927
vt 0.912373 0.902888
vt 0.906614 0.914740
vt 0.899762 0.914740
vt 0.899762 0.909944
vt 0.906614 0.909944
vt 0.918984 0.894497
vt 0.924101 0.894370
vt 0.912235 0.895758
vt 0.912167 0.891801
vt 0.918955 0.892972
vt 0.901588 0.894495
vt 0.908015 0.895803
vt 0.901660 0.893050
vt 0.901278 0.882861
vt 0.908028 0.883573
vt 0.908059 0.891888
vt 0.924067 0.892916
vt 0.907848 0.878922
vt 0.912227 0.878783
vt 0.912267 0.883425
vt 0.918894 0.882409
vt 0.924061 0.882615
vt 0.912581 0.870591
vt 0.919662 0.871187
vt 0.919027 0.880074
vt 0.924163 0.880359
vt 0.901058 0.880550
vt 0.925164 0.914740
vt 0.918312 0.914740
vt 0.918312 0.909944
vt 0.925164 0.909944
vt 0.899762 0.871340
vt 0.907409 0.870541
vt 0.924745 0.871522
vn -1.0000 0.0000 0.0000
vn 0.0000 0.0000 -1.0000
vn 1.0000 0.0000 0.0000
vn 0.0000 0.0000 1.0000
vn 0.0000 -1.0000 0.0000
vn 0.0000 0.2086 0.9780
vn 0.0000 -0.1621 -0.9868
vn 0.0000 0.6340 0.7734
vn 0.0000 0.4466 0.8947
vn 0.0000 -0.4466 -0.8947
vn 0.0000 -0.6337 -0.7736
vn 0.0000 0.6131 -0.7900
vn 0.0000 0.7900 0.6131
vn 0.0000 -0.7900 -0.6131
vn 0.0000 0.2086 -0.9780
vn 0.0000 -0.1621 0.9868
vn 0.0000 0.6340 -0.7734
vn 0.0000 0.4466 -0.8947
vn 0.0000 -0.4466 0.8947
vn 0.0000 -0.6337 0.7736
vn 0.0000 0.6131 0.7900
vn 0.0000 0.7900 -0.6131
vn 0.0000 -0.7900 0.6131
usemtl TargetMaterial
s off
f 65/132/35 66/133/35 68/134/35 67/135/35
f 67/136/36 68/137/36 72/138/36 71/139/36
f 71/139/37 72/138/37 70/140/37 69/141/37
f 69/141/38 70/140/38 66/133/38 65/132/38
f 67/142/39 71/143/39 69/144/39 65/145/39
f 72/138/36 68/137/36 74/146/36 75/147/36
f 76/148/37 75/147/37 79/149/37 80/150/37
f 70/140/37 72/138/37 75/147/37 76/148/37
f 68/134/35 66/133/35 73/151/35 74/152/35
f 66/133/38 70/140/38 76/148/38 73/151/38
f 78/153/35 77/154/35 81/155/35 82/156/35
f 74/152/35 73/151/35 77/154/35 78/153/35
f 73/151/40 76/148/40 80/150/40 77/154/40
f 75/147/41 74/146/41 78/157/41 79/149/41
f 81/155/42 84/158/42 88/159/42 85/160/42
f 77/154/43 80/150/43 84/158/43 81/155/43
f 79/149/44 78/157/44 82/161/44 83/162/44
f 80/150/37 79/149/37 83/162/37 84/158/37
f 88/159/37 87/163/37 91/164/37 92/165/37
f 83/162/45 82/161/45 86/166/45 87/163/45
f 84/158/37 83/162/37 87/163/37 88/159/37
f 82/156/35 81/155/35 85/160/35 86/167/35
f 91/168/46 90/169/46 89/170/46 92/171/46
f 86/167/35 85/160/35 89/172/35 90/173/35
f 85/160/47 88/159/47 92/165/47 89/172/47
f 87/163/48 86/166/48 90/174/48 91/164/48
f 93/175/35 95/176/35 96/177/35 94/178/35
f 95/179/38 99/180/38 100/181/38 96/182/38
f 99/180/37 97/183/37 98/184/37 100/181/37
f 97/183/36 93/175/36 94/178/36 98/184/36
f 95/185/39 93/186/39 97/187/39 99/188/39
f 100/181/38 103/189/38 102/190/38 96/182/38
f 104/191/37 108/192/37 107/193/37 103/189/37
f 98/184/37 104/191/37 103/189/37 100/181/37
f 96/177/35 102/194/35 101/195/35 94/178/35
f 94/178/36 101/195/36 104/191/36 98/184/36
f 106/196/35 110/197/35 109/198/35 105/199/35
f 102/194/35 106/196/35 105/199/35 101/195/35
f 101/195/49 105/199/49 108/192/49 104/191/49
f 103/189/50 107/193/50 106/200/50 102/190/50
f 109/198/51 113/201/51 116/202/51 112/203/51
f 105/199/52 109/198/52 112/203/52 108/192/52
f 107/193/53 111/204/53 110/205/53 106/200/53
f 108/192/37 112/203/37 111/204/37 107/193/37
f 116/202/37 120/206/37 119/207/37 115/208/37
f 111/204/54 115/208/54 114/209/54 110/205/54
f 112/203/37 116/202/37 115/208/37 111/204/37
f 110/197/35 114/210/35 113/201/35 109/198/35
f 119/211/55 120/212/55 117/213/55 118/214/55
f 114/210/35 118/215/35 117/216/35 113/201/35
f 113/201/56 117/216/56 120/206/56 116/202/56
f 115/208/57 119/207/57 118/217/57 114/209/57
